<?xml version="1.0" encoding="utf-8"?>
<!-- Generator: Adobe Illustrator 22.0.1, SVG Export Plug-In . SVG Version: 6.00 Build 0)  -->
<svg version="1.1"
	 id="svg4190" inkscape:version="0.91 r13725" sodipodi:docname="Westworld-logo.svg" xmlns:cc="http://creativecommons.org/ns#" xmlns:dc="http://purl.org/dc/elements/1.1/" xmlns:inkscape="http://www.inkscape.org/namespaces/inkscape" xmlns:rdf="http://www.w3.org/1999/02/22-rdf-syntax-ns#" xmlns:sodipodi="http://sodipodi.sourceforge.net/DTD/sodipodi-0.dtd" xmlns:svg="http://www.w3.org/2000/svg"
	 xmlns="http://www.w3.org/2000/svg" xmlns:xlink="http://www.w3.org/1999/xlink" x="0px" y="0px" viewBox="0 0 360 360"
	 style="enable-background:new 0 0 360 360;" xml:space="preserve">
<style type="text/css">
	.st0{fill:none;stroke:#FEFEFD;stroke-width:7;}
	.st1{fill:#FFFFFF;}
</style>
<sodipodi:namedview  bordercolor="#666666" borderopacity="1" fit-margin-bottom="0" fit-margin-left="0" fit-margin-right="0" fit-margin-top="0" gridtolerance="10" guidetolerance="10" id="namedview4192" inkscape:current-layer="svg4190" inkscape:cx="168.07721" inkscape:cy="164.62186" inkscape:pageopacity="0" inkscape:pageshadow="2" inkscape:window-height="741" inkscape:window-maximized="1" inkscape:window-width="1366" inkscape:window-x="0" inkscape:window-y="0" inkscape:zoom="1.1964247" objecttolerance="10" pagecolor="#ffffff" showgrid="false">
	</sodipodi:namedview>
<ellipse id="path4219" class="st0" cx="180" cy="180" rx="176.5" ry="176.5"/>
<path id="path4225" inkscape:connector-curvature="0" sodipodi:nodetypes="cccccccccccccccccccccccc" class="st1" d="M123.6,252.2
	l-50-143h-26l50,143H123.6z M263.6,252.2l50-143h-25l-50,143H263.6z M180.3,159l25.4,68.1h25.6l42.5-118h-25l-30.2,78l-20.2-55
	h-36.1l-21,55l-28.9-78h-26l41.9,118h27.2L180.3,159z"/>
<g id="text4221" transform="translate(-321.41177,-15.326828)">
	<path id="path4230" inkscape:connector-curvature="0" class="st1" d="M434.3,288.9h-3.5l-3.9,11.4l-3.4-11.4h-4.2l-3.4,11.4
		l-3.9-11.4h-3.8l5.5,14.9h4.4l3.4-10.9l3.3,10.9h4.4L434.3,288.9L434.3,288.9z"/>
	<path id="path4232" inkscape:connector-curvature="0" class="st1" d="M451.4,303.8v-3h-11.1v-3h10.7v-3h-10.7v-2.9h11v-3h-14.5
		v14.9H451.4z"/>
	<path id="path4234" inkscape:connector-curvature="0" class="st1" d="M471.1,299.3c0-1.2-0.5-2.2-1.4-2.9c-0.9-0.7-2.3-1.2-4.2-1.4
		l-3.2-0.4c-1.2-0.1-2.2-0.3-2.8-0.4c-0.6-0.1-1-0.3-1.3-0.5c-0.3-0.2-0.4-0.5-0.4-0.8c0-0.4,0.1-0.7,0.4-0.9
		c0.3-0.2,0.7-0.3,1.3-0.4c0.6-0.1,1.4-0.1,2.5-0.1c3.2,0,4.8,0.7,4.8,2h3.8c0-0.6-0.2-1.2-0.5-1.8c-0.3-0.6-0.8-1.1-1.5-1.5
		c-0.7-0.4-1.5-0.8-2.6-1.1c-1.1-0.3-2.3-0.4-3.8-0.4c-1.7,0-3.2,0.2-4.4,0.5s-2.1,0.9-2.8,1.5c-0.6,0.7-1,1.5-1,2.4
		c0,1.2,0.5,2.2,1.5,2.9s2.6,1.1,4.8,1.4l3,0.4c1.1,0.1,1.9,0.2,2.4,0.4c0.5,0.1,0.9,0.3,1.1,0.5c0.2,0.2,0.3,0.5,0.3,0.9
		c0,0.6-0.4,1-1.1,1.2s-1.8,0.4-3.3,0.4c-1.6,0-2.9-0.2-3.8-0.6c-0.9-0.4-1.3-0.9-1.3-1.6H454c0,1.1,0.4,2,1.1,2.7s1.7,1.3,3,1.7
		c1.3,0.4,2.9,0.6,4.7,0.6c2.7,0,4.8-0.4,6.2-1.2C470.4,302,471.1,300.9,471.1,299.3L471.1,299.3z"/>
	<path id="path4236" inkscape:connector-curvature="0" class="st1" d="M489.2,291.9v-3h-16.7v3h6.5v11.9h3.7v-11.9H489.2
		L489.2,291.9z"/>
	<path id="path4238" inkscape:connector-curvature="0" class="st1" d="M516.2,288.9h-3.5l-3.9,11.4l-3.4-11.4h-4.2l-3.4,11.4
		l-3.9-11.4H490l5.5,14.9h4.4l3.4-10.9l3.3,10.9h4.4L516.2,288.9L516.2,288.9z"/>
	<path id="path4240" inkscape:connector-curvature="0" class="st1" d="M526.2,288.6c-1.5,0-2.9,0.2-4,0.5c-1.1,0.3-2.1,0.9-3,1.6
		c-0.8,0.7-1.4,1.5-1.8,2.4s-0.6,2-0.6,3.2c0,2.5,0.8,4.4,2.4,5.8c1.6,1.3,3.9,2,6.9,2c2.1,0,3.8-0.3,5.1-0.9
		c1.4-0.6,2.4-1.4,3.1-2.6c0.7-1.2,1.1-2.6,1.1-4.3c0-1.3-0.2-2.4-0.5-3.3c-0.4-0.9-1-1.7-1.8-2.4c-0.8-0.7-1.8-1.2-3-1.5
		C529,288.8,527.7,288.6,526.2,288.6L526.2,288.6z M526.2,301.1c-1.4,0-2.5-0.2-3.3-0.6s-1.5-0.9-1.8-1.6c-0.4-0.7-0.5-1.5-0.5-2.6
		c0-1,0.2-1.9,0.6-2.6c0.4-0.7,1-1.2,1.9-1.6c0.9-0.4,1.9-0.6,3.2-0.6c0.9,0,1.6,0.1,2.3,0.2c0.6,0.1,1.2,0.4,1.7,0.7
		c0.5,0.3,0.9,0.7,1.1,1s0.4,0.7,0.5,1.2c0.1,0.5,0.2,1,0.2,1.6c0,1.5-0.4,2.6-1,3.3c-0.6,0.6-1.2,0.9-2,1.2
		C528.1,301,527.2,301.1,526.2,301.1L526.2,301.1z"/>
	<path id="path4242" inkscape:connector-curvature="0" class="st1" d="M554.6,293.3c0-1.5-0.5-2.6-1.4-3.3c-0.9-0.7-2.2-1.1-3.9-1.1
		h-10.6v14.9h3.5V298h5.8l4,5.8h4.1l-4.5-6.3c0.8-0.1,1.5-0.5,2.1-1.2C554.3,295.5,554.6,294.6,554.6,293.3L554.6,293.3z
		 M551.1,293.6c0,0.6-0.1,1-0.4,1.2s-0.8,0.4-1.5,0.4h-6.8v-3.3h6.6c0.5,0,1,0.1,1.3,0.2c0.3,0.1,0.5,0.3,0.7,0.5
		C551,292.8,551.1,293.1,551.1,293.6L551.1,293.6z"/>
	<path id="path4244" inkscape:connector-curvature="0" class="st1" d="M572.2,303.8v-3h-9.7v-11.9h-3.6v14.9H572.2L572.2,303.8z"/>
	<path id="path4246" inkscape:connector-curvature="0" class="st1" d="M584.6,303.8c1.3,0,2.4-0.1,3.3-0.5c0.9-0.3,1.7-0.8,2.3-1.4
		c0.6-0.6,1-1.4,1.2-2.2c0.2-0.9,0.4-2,0.4-3.5c0-1.4-0.1-2.6-0.4-3.4c-0.3-0.8-0.7-1.5-1.3-2.1c-0.6-0.6-1.4-1-2.3-1.3
		c-0.9-0.3-2-0.4-3.3-0.4h-9.3v14.9L584.6,303.8L584.6,303.8z M588.2,296.5c0,1.4-0.2,2.4-0.6,2.9c-0.4,0.5-0.8,0.9-1.5,1.1
		c-0.6,0.2-1.4,0.3-2.4,0.3h-5.1v-9h5.2c1,0,1.7,0.1,2.3,0.4c0.6,0.2,1,0.6,1.4,1.1C588,293.9,588.2,295,588.2,296.5L588.2,296.5z"
		/>
</g>
</svg>
